# File created by Blade
# Date/Time:  Wed Sep 24 20:15:16 2014
# Frame Rate: 120.000 fps
#------------------------------------------------------
:FULLY-SPECIFIED
:DEGREES
1028
root -6.490348 32.759290 -5.437187 16.434122 6.008330 -1.906871
Spine -19.945572 9.420057 -2.050780
Head -10.052438 -17.242148 15.579407
LeftShoulder -5.013007 17.248504 10.029217
LeftArm 26.427406 39.033854 -68.569981
LeftForeArm -0.543685 0.000000 21.764912
LeftHand -22.257155 -0.000000 -6.698476
LeftHandThumb1 -26.253704 0.000000 33.147579
RightShoulder -14.785030 13.144079 -14.228903
RightArm -1.655235 -39.486850 96.615386
RightForeArm 11.645712 -0.000000 103.304644
RightHand -5.734046 0.000000 23.812449
RightHandThumb1 -24.326973 -0.000000 -32.862282
LeftUpLeg -14.811107 5.199457 5.368178
LeftLeg 0.786703 -0.000000 -0.000000
LeftFoot -10.758637 5.978761 -18.380726
LeftToeBase 9.673383 -0.000000 -0.000000
RightUpLeg -14.355719 -7.605563 0.349712
RightLeg 3.385375 -0.000000 -0.000000
RightFoot -8.713863 -4.543341 -13.409694
RightToeBase 0.535334 -0.000000 -0.000000
1029
root -6.487790 32.759528 -5.439614 16.450608 6.001902 -1.903493
Spine -19.944171 9.424584 -2.046356
Head -10.081003 -17.280110 15.599964
LeftShoulder -5.017484 17.247404 10.017321
LeftArm 26.397673 39.023293 -68.588965
LeftForeArm -0.588976 -0.000000 21.783978
LeftHand -22.337057 0.000000 -6.588025
LeftHandThumb1 -26.253704 0.000000 33.147579
RightShoulder -14.779609 13.142678 -14.225887
RightArm -1.659166 -39.466595 96.601523
RightForeArm 11.557790 -0.000000 103.282151
RightHand -5.697113 -0.000000 23.786095
RightHandThumb1 -24.326973 -0.000000 -32.862282
LeftUpLeg -14.830034 5.211359 5.356657
LeftLeg 0.787748 -0.000000 -0.000000
LeftFoot -10.751314 5.977333 -18.368424
LeftToeBase 9.635729 -0.000000 -0.000000
RightUpLeg -14.378625 -7.608110 0.345559
RightLeg 3.390751 -0.000000 -0.000000
RightFoot -8.718216 -4.545723 -13.441064
RightToeBase 0.593397 -0.000000 -0.000000
1030
root -6.483518 32.759411 -5.441079 16.460792 5.993734 -1.893667
Spine -19.940358 9.440072 -2.047293
Head -10.095654 -17.330586 15.595557
LeftShoulder -5.015845 17.266677 10.004416
LeftArm 26.389301 38.992921 -68.606498
LeftForeArm -0.580486 -0.000000 21.784072
LeftHand -22.355321 -0.000000 -6.564021
LeftHandThumb1 -26.253704 0.000000 33.147579
RightShoulder -14.788971 13.142666 -14.238695
RightArm -1.680183 -39.426576 96.607075
RightForeArm 11.520864 -0.000000 103.263753
RightHand -5.666480 -0.000000 23.760264
RightHandThumb1 -24.326973 -0.000000 -32.862282
LeftUpLeg -14.836907 5.206229 5.336609
LeftLeg 0.780546 -0.000000 -0.000000
LeftFoot -10.742980 5.992338 -18.352284
LeftToeBase 9.667119 -0.000000 -0.000000
RightUpLeg -14.386962 -7.606892 0.328268
RightLeg 3.380966 -0.000000 -0.000000
RightFoot -8.708888 -4.540506 -13.449801
RightToeBase 0.571879 -0.000000 -0.000000
1031
root -6.480917 32.759574 -5.442952 16.471373 5.981340 -1.887400
Spine -19.934907 9.456126 -2.055322
Head -10.108266 -17.368705 15.613638
LeftShoulder -5.014656 17.285030 10.000950
LeftArm 26.389508 38.967646 -68.612809
LeftForeArm -0.596051 -0.000000 21.774064
LeftHand -22.335041 -0.000000 -6.564944
LeftHandThumb1 -26.253704 0.000000 33.147579
RightShoulder -14.786052 13.151268 -14.232672
RightArm -1.716682 -39.341649 96.615880
RightForeArm 11.512987 -0.000000 103.256968
RightHand -5.624771 0.000000 23.703464
RightHandThumb1 -24.326973 -0.000000 -32.862282
LeftUpLeg -14.853081 5.234072 5.316327
LeftLeg 0.792894 -0.000000 -0.000000
LeftFoot -10.735428 5.977515 -18.349959
LeftToeBase 9.585884 -0.000000 -0.000000
RightUpLeg -14.407114 -7.615036 0.318830
RightLeg 3.391101 -0.000000 -0.000000
RightFoot -8.718262 -4.513501 -13.426556
RightToeBase 0.557380 -0.000000 -0.000000
1032
root -6.478532 32.759485 -5.444979 16.483034 5.976276 -1.884393
Spine -19.928674 9.465615 -2.055230
Head -10.133591 -17.409374 15.629996
LeftShoulder -5.015203 17.303724 9.999574
LeftArm 26.393860 38.943709 -68.624068
LeftForeArm -0.744266 -0.000000 21.759843
LeftHand -22.324262 -0.000000 -5.822776
LeftHandThumb1 -26.253704 0.000000 33.147579
RightShoulder -14.787204 13.145641 -14.229442
RightArm -1.751905 -39.232126 96.612230
RightForeArm 11.469896 -0.000000 103.260783
RightHand -5.657948 -0.000000 23.548362
RightHandThumb1 -24.326973 -0.000000 -32.862282
LeftUpLeg -14.862605 5.232336 5.307149
LeftLeg 0.784732 -0.000000 -0.000000
LeftFoot -10.741518 5.984924 -18.342255
LeftToeBase 9.625060 -0.000000 -0.000000
RightUpLeg -14.418737 -7.592647 0.310242
RightLeg 3.384230 -0.000000 -0.000000
RightFoot -8.698643 -4.547217 -13.453849
RightToeBase 0.560755 -0.000000 -0.000000
1033
root -6.473479 32.759548 -5.446814 16.498870 5.967877 -1.866432
Spine -19.927983 9.478236 -2.066123
Head -10.155163 -17.433203 15.634947
LeftShoulder -5.013926 17.287265 9.991346
LeftArm 26.355954 38.939467 -68.652550
LeftForeArm -0.842933 -0.000000 21.751628
LeftHand -22.303829 0.000000 -5.469697
LeftHandThumb1 -26.253704 0.000000 33.147579
RightShoulder -14.783820 13.142290 -14.230945
RightArm -1.800683 -39.078286 96.619185
RightForeArm 11.547853 0.000000 103.266280
RightHand -5.719551 -0.000000 23.471013
RightHandThumb1 -24.326973 -0.000000 -32.862282
LeftUpLeg -14.879044 5.247233 5.274272
LeftLeg 0.784956 -0.000000 -0.000000
LeftFoot -10.774201 5.968211 -18.438795
LeftToeBase 9.802581 -0.000000 -0.000000
RightUpLeg -14.437737 -7.571880 0.282163
RightLeg 3.391246 -0.000000 -0.000000
RightFoot -8.695479 -4.590936 -13.479493
RightToeBase 0.598775 -0.000000 -0.000000
1034
root -6.471554 32.759995 -5.447344 16.503320 5.962338 -1.876032
Spine -19.919730 9.498020 -2.048881
Head -10.178152 -17.475747 15.639216
LeftShoulder -5.012237 17.313013 9.981369
LeftArm 26.366235 38.918202 -68.659308
LeftForeArm -0.925859 0.000000 21.741203
LeftHand -22.171635 -0.000000 -4.855899
LeftHandThumb1 -26.253704 0.000000 33.147579
RightShoulder -14.796539 13.131230 -14.233723
RightArm -1.829422 -38.955026 96.605363
RightForeArm 11.562067 0.000000 103.259440
RightHand -5.765627 -0.000000 23.309844
RightHandThumb1 -24.326973 -0.000000 -32.862282
LeftUpLeg -14.881764 5.266539 5.274142
LeftLeg 0.778771 -0.000000 -0.000000
LeftFoot -10.747926 5.965810 -18.392133
LeftToeBase 9.719399 -0.000000 -0.000000
RightUpLeg -14.486766 -7.678621 0.312669
RightLeg 3.467426 -0.000000 -0.000000
RightFoot -8.746643 -4.460657 -13.465236
RightToeBase 0.563584 -0.000000 -0.000000
1035
root -6.469745 32.760136 -5.449207 16.510252 5.962313 -1.880827
Spine -19.908018 9.497327 -2.029900
Head -10.193416 -17.508497 15.648768
LeftShoulder -5.011880 17.311640 9.973993
LeftArm 26.333620 38.896551 -68.699446
LeftForeArm -0.946357 -0.000000 21.727806
LeftHand -22.195424 -0.000000 -4.831925
LeftHandThumb1 -26.253704 0.000000 33.147579
RightShoulder -14.779387 13.119701 -14.230156
RightArm -1.863188 -38.784423 96.601548
RightForeArm 11.524886 -0.000000 103.251049
RightHand -5.706925 -0.000000 23.187580
RightHandThumb1 -24.326973 -0.000000 -32.862282
LeftUpLeg -14.894812 5.256446 5.277769
LeftLeg 0.785287 -0.000000 -0.000000
LeftFoot -10.748622 5.973903 -18.375934
LeftToeBase 9.693667 -0.000000 -0.000000
RightUpLeg -14.498884 -7.679174 0.316709
RightLeg 3.470014 -0.000000 -0.000000
RightFoot -8.744948 -4.463814 -13.455871
RightToeBase 0.583328 -0.000000 -0.000000
1036
root -6.467122 32.760225 -5.451195 16.516063 5.962921 -1.879810
Spine -19.890594 9.499318 -2.012443
Head -10.226314 -17.520042 15.628133
LeftShoulder -5.008246 17.321280 9.968297
LeftArm 26.322854 38.892010 -68.720319
LeftForeArm -0.841262 -0.000000 21.715204
LeftHand -22.271891 -0.000000 -5.307608
LeftHandThumb1 -26.253704 0.000000 33.147579
RightShoulder -14.793753 13.120450 -14.243897
RightArm -1.890179 -38.604970 96.604049
RightForeArm 11.564624 -0.000000 103.222141
RightHand -5.742621 0.000000 23.134090
RightHandThumb1 -24.326973 -0.000000 -32.862282
LeftUpLeg -14.904192 5.265383 5.268288
LeftLeg 0.785861 -0.000000 -0.000000
LeftFoot -10.745452 5.961086 -18.365912
LeftToeBase 9.719179 -0.000000 -0.000000
RightUpLeg -14.508176 -7.672850 0.309164
RightLeg 3.473385 -0.000000 -0.000000
RightFoot -8.730166 -4.481322 -13.468900
RightToeBase 0.522175 -0.000000 -0.000000
1037
root -6.464386 32.759719 -5.453448 16.521189 5.963006 -1.868770
Spine -19.872279 9.484068 -2.009487
Head -10.244624 -17.544382 15.637679
LeftShoulder -5.003007 17.331039 9.984751
LeftArm 26.299976 38.892724 -68.761999
LeftForeArm -0.736826 -0.000000 21.702861
LeftHand -22.355271 -0.000000 -5.882313
LeftHandThumb1 -26.253704 0.000000 33.147579
RightShoulder -14.781199 13.114187 -14.240769
RightArm -1.904366 -38.427189 96.587871
RightForeArm 11.564272 -0.000000 103.194194
RightHand -5.657772 -0.000000 22.956377
RightHandThumb1 -24.326973 -0.000000 -32.862282
LeftUpLeg -14.917083 5.258938 5.249390
LeftLeg 0.793812 -0.000000 -0.000000
LeftFoot -10.781120 5.976460 -18.448082
LeftToeBase 9.781494 -0.000000 -0.000000
RightUpLeg -14.466414 -7.562343 0.264550
RightLeg 3.375953 -0.000000 -0.000000
RightFoot -8.673167 -4.552674 -13.396891
RightToeBase 0.549493 -0.000000 -0.000000
1038
root -6.460754 32.759752 -5.454605 16.521129 5.955116 -1.857947
Spine -19.854197 9.477975 -1.999767
Head -10.248805 -17.569040 15.616701
LeftShoulder -5.000505 17.336173 9.976859
LeftArm 26.273726 38.893498 -68.786582
LeftForeArm -0.723548 -0.000000 21.695657
LeftHand -22.351424 -0.000000 -5.976874
LeftHandThumb1 -26.253704 0.000000 33.147579
RightShoulder -14.769953 13.118653 -14.252115
RightArm -1.932867 -38.240429 96.585383
RightForeArm 11.582440 -0.000000 103.144685
RightHand -5.588688 -0.000000 22.867095
RightHandThumb1 -24.326973 -0.000000 -32.862282
LeftUpLeg -14.917636 5.268220 5.233557
LeftLeg 0.797967 -0.000000 -0.000000
LeftFoot -10.748875 5.941149 -18.574055
LeftToeBase 9.671600 -0.000000 -0.000000
RightUpLeg -14.470786 -7.547360 0.246133
RightLeg 3.386672 -0.000000 -0.000000
RightFoot -8.678602 -4.586742 -13.446318
RightToeBase 0.583760 -0.000000 -0.000000
